<svg width="532" height="96" viewBox="0 0 532 96" fill="none" xmlns="http://www.w3.org/2000/svg">
<path d="M41.4609 16.5391L33.3398 21.3516C31.8216 18.7161 30.375 16.9974 29 16.1953C27.5677 15.2786 25.7201 14.8203 23.457 14.8203C20.6784 14.8203 18.3724 15.6081 16.5391 17.1836C14.7057 18.7305 13.7891 20.6784 13.7891 23.0273C13.7891 26.2643 16.1953 28.8711 21.0078 30.8477L27.625 33.5547C33.0104 35.7318 36.9492 38.3958 39.4414 41.5469C41.9336 44.6693 43.1797 48.5078 43.1797 53.0625C43.1797 59.1641 41.1458 64.2057 37.0781 68.1875C32.9818 72.1979 27.8971 74.2031 21.8242 74.2031C16.0664 74.2031 11.3112 72.4987 7.55859 69.0898C3.86328 65.681 1.55729 60.8828 0.640625 54.6953L10.7812 52.4609C11.2396 56.3568 12.0417 59.0495 13.1875 60.5391C15.25 63.4036 18.2578 64.8359 22.2109 64.8359C25.3333 64.8359 27.9258 63.7904 29.9883 61.6992C32.0508 59.6081 33.082 56.9583 33.082 53.75C33.082 52.4609 32.8958 51.2865 32.5234 50.2266C32.1797 49.138 31.6211 48.1497 30.8477 47.2617C30.1029 46.3451 29.1289 45.5 27.9258 44.7266C26.7227 43.9245 25.2904 43.1654 23.6289 42.4492L17.2266 39.7852C8.14583 35.9466 3.60547 30.332 3.60547 22.9414C3.60547 17.957 5.51042 13.7891 9.32031 10.4375C13.1302 7.05729 17.8711 5.36719 23.543 5.36719C31.1914 5.36719 37.1641 9.09115 41.4609 16.5391ZM64.9219 40.1719V73H55.2539V40.1719H51.1289V31.1484H55.2539V15.8086H64.9219V31.1484H72.4414V40.1719H64.9219ZM110.641 31.1484H120.352V73H110.641V68.6172C106.659 72.3411 102.376 74.2031 97.793 74.2031C92.0065 74.2031 87.2227 72.112 83.4414 67.9297C79.6888 63.6615 77.8125 58.3333 77.8125 51.9453C77.8125 45.6719 79.6888 40.444 83.4414 36.2617C87.194 32.0794 91.8919 29.9883 97.5352 29.9883C102.405 29.9883 106.773 31.9935 110.641 36.0039V31.1484ZM87.6953 51.9453C87.6953 55.9557 88.7695 59.2214 90.918 61.7422C93.1237 64.2917 95.9023 65.5664 99.2539 65.5664C102.835 65.5664 105.728 64.3346 107.934 61.8711C110.139 59.3216 111.242 56.0846 111.242 52.1602C111.242 48.2357 110.139 44.9987 107.934 42.4492C105.728 39.957 102.863 38.7109 99.3398 38.7109C96.0169 38.7109 93.2383 39.9714 91.0039 42.4922C88.7982 45.0417 87.6953 48.1927 87.6953 51.9453ZM165.125 32.9531V45.8008C162.919 43.1081 160.943 41.2604 159.195 40.2578C157.477 39.2266 155.457 38.7109 153.137 38.7109C149.499 38.7109 146.477 39.9857 144.07 42.5352C141.664 45.0846 140.461 48.2786 140.461 52.1172C140.461 56.0417 141.621 59.2643 143.941 61.7852C146.29 64.306 149.284 65.5664 152.922 65.5664C155.242 65.5664 157.29 65.0651 159.066 64.0625C160.785 63.0885 162.805 61.1979 165.125 58.3906V71.1523C161.201 73.1862 157.276 74.2031 153.352 74.2031C146.878 74.2031 141.464 72.112 137.109 67.9297C132.755 63.7188 130.578 58.4909 130.578 52.2461C130.578 46.0013 132.784 40.7305 137.195 36.4336C141.607 32.1367 147.021 29.9883 153.438 29.9883C157.562 29.9883 161.458 30.9766 165.125 32.9531ZM186.48 0.425781V44.6836L200.102 31.1484H213.078L194.902 48.7227L214.41 73H201.863L188.027 55.3398L186.48 56.8867V73H176.812V0.425781H186.48ZM259.656 6.65625V73H249.645V6.65625H259.656ZM273.75 31.1484H283.461V35.0156C286.841 31.6641 290.651 29.9883 294.891 29.9883C299.76 29.9883 303.556 31.5208 306.277 34.5859C308.626 37.1927 309.801 41.4466 309.801 47.3477V73H300.09V49.625C300.09 45.5 299.517 42.6497 298.371 41.0742C297.254 39.4701 295.22 38.668 292.27 38.668C289.061 38.668 286.784 39.7279 285.438 41.8477C284.12 43.9388 283.461 47.5911 283.461 52.8047V73H273.75V31.1484ZM346.367 38.2812L338.375 42.5352C337.115 39.957 335.553 38.668 333.691 38.668C332.803 38.668 332.044 38.9688 331.414 39.5703C330.784 40.1432 330.469 40.888 330.469 41.8047C330.469 43.4089 332.331 44.9987 336.055 46.5742C341.182 48.7799 344.634 50.8138 346.41 52.6758C348.186 54.5378 349.074 57.0443 349.074 60.1953C349.074 64.2344 347.585 67.6146 344.605 70.3359C341.712 72.9141 338.217 74.2031 334.121 74.2031C327.103 74.2031 322.133 70.7799 319.211 63.9336L327.461 60.1094C328.607 62.1146 329.48 63.3893 330.082 63.9336C331.257 65.0221 332.66 65.5664 334.293 65.5664C337.559 65.5664 339.191 64.0768 339.191 61.0977C339.191 59.3789 337.931 57.7747 335.41 56.2852C334.436 55.7982 333.462 55.3255 332.488 54.8672C331.514 54.4089 330.526 53.9362 329.523 53.4492C326.716 52.0742 324.74 50.6992 323.594 49.3242C322.133 47.5768 321.402 45.3281 321.402 42.5781C321.402 38.9401 322.648 35.9323 325.141 33.5547C327.69 31.1771 330.784 29.9883 334.422 29.9883C339.779 29.9883 343.76 32.7526 346.367 38.2812ZM367.465 31.1484V73H357.797V31.1484H367.465ZM356.336 13.7461C356.336 12.056 356.952 10.5951 358.184 9.36328C359.415 8.13151 360.891 7.51562 362.609 7.51562C364.357 7.51562 365.846 8.13151 367.078 9.36328C368.31 10.5664 368.926 12.0417 368.926 13.7891C368.926 15.5365 368.31 17.026 367.078 18.2578C365.875 19.4896 364.4 20.1055 362.652 20.1055C360.905 20.1055 359.415 19.4896 358.184 18.2578C356.952 17.026 356.336 15.5221 356.336 13.7461ZM420.188 72.0117C420.188 73.9883 420.116 75.7214 419.973 77.2109C419.858 78.7292 419.686 80.0612 419.457 81.207C418.77 84.3581 417.423 87.0651 415.418 89.3281C411.637 93.6823 406.438 95.8594 399.82 95.8594C394.234 95.8594 389.637 94.3555 386.027 91.3477C382.303 88.2539 380.155 83.9714 379.582 78.5H389.293C389.665 80.5625 390.281 82.1523 391.141 83.2695C393.146 85.8763 396.068 87.1797 399.906 87.1797C406.982 87.1797 410.52 82.8398 410.52 74.1602V68.3164C406.681 72.2409 402.255 74.2031 397.242 74.2031C391.542 74.2031 386.872 72.1406 383.234 68.0156C379.568 63.8333 377.734 58.6055 377.734 52.332C377.734 46.2305 379.439 41.0456 382.848 36.7773C386.514 32.2513 391.355 29.9883 397.371 29.9883C402.642 29.9883 407.025 31.9505 410.52 35.875V31.1484H420.188V72.0117ZM410.906 52.1602C410.906 48.0924 409.818 44.8411 407.641 42.4062C405.435 39.9141 402.613 38.668 399.176 38.668C395.509 38.668 392.616 40.0286 390.496 42.75C388.577 45.1849 387.617 48.3359 387.617 52.2031C387.617 56.013 388.577 59.1354 390.496 61.5703C392.587 64.2344 395.48 65.5664 399.176 65.5664C402.871 65.5664 405.793 64.2201 407.941 61.5273C409.918 59.0924 410.906 55.9701 410.906 52.1602ZM432.391 0.425781H442.059V34.6289C445.496 31.5352 449.292 29.9883 453.445 29.9883C458.172 29.9883 461.953 31.5208 464.789 34.5859C467.195 37.25 468.398 41.5039 468.398 47.3477V73H458.73V48.25C458.73 44.8984 458.129 42.4779 456.926 40.9883C455.751 39.4701 453.846 38.7109 451.211 38.7109C447.831 38.7109 445.453 39.7565 444.078 41.8477C442.732 43.9674 442.059 47.6055 442.059 52.7617V73H432.391V0.425781ZM490.656 40.1719V73H480.988V40.1719H476.863V31.1484H480.988V15.8086H490.656V31.1484H498.176V40.1719H490.656ZM529.07 38.2812L521.078 42.5352C519.818 39.957 518.257 38.668 516.395 38.668C515.507 38.668 514.747 38.9688 514.117 39.5703C513.487 40.1432 513.172 40.888 513.172 41.8047C513.172 43.4089 515.034 44.9987 518.758 46.5742C523.885 48.7799 527.337 50.8138 529.113 52.6758C530.889 54.5378 531.777 57.0443 531.777 60.1953C531.777 64.2344 530.288 67.6146 527.309 70.3359C524.415 72.9141 520.921 74.2031 516.824 74.2031C509.806 74.2031 504.836 70.7799 501.914 63.9336L510.164 60.1094C511.31 62.1146 512.184 63.3893 512.785 63.9336C513.96 65.0221 515.363 65.5664 516.996 65.5664C520.262 65.5664 521.895 64.0768 521.895 61.0977C521.895 59.3789 520.634 57.7747 518.113 56.2852C517.139 55.7982 516.165 55.3255 515.191 54.8672C514.217 54.4089 513.229 53.9362 512.227 53.4492C509.419 52.0742 507.443 50.6992 506.297 49.3242C504.836 47.5768 504.105 45.3281 504.105 42.5781C504.105 38.9401 505.352 35.9323 507.844 33.5547C510.393 31.1771 513.487 29.9883 517.125 29.9883C522.482 29.9883 526.464 32.7526 529.07 38.2812Z" fill="#f4b0ffd1"/>
</svg>
